<svg xmlns="http://www.w3.org/2000/svg" width="240.0885467529297" height="88" viewBox="0 0 120.04427337646484 44" fill="#fff"><g transform="translate(2, 2)"><path stroke="#389438" fill="#59C059" fill-opacity="1" d="m 0,0 m 20,0 H 96.0442705154419 a 20 20 0 0 1 0 40 H 20 a 20 20 0 0 1 0 -40 z"/><g data-argument-type="text number" transform="translate(4,4)"><path stroke="#389438" fill="#FFFFFF" fill-opacity="1" d="m 0,0 m 16,0 H 24 a 16 16 0 0 1 0 32 H 16 a 16 16 0 0 1 0 -32 z"/><g class="blocklyEditableText" transform="translate(8, 0) " style="cursor: text;" fill="#575E75"><text x="12" y="18" dominant-baseline="middle" dy="0" text-anchor="middle"> </text></g></g><g data-argument-type="text number" transform="translate(72.0442705154419,4)"><path stroke="#389438" fill="#FFFFFF" fill-opacity="1" d="m 0,0 m 16,0 H 24 a 16 16 0 0 1 0 32 H 16 a 16 16 0 0 1 0 -32 z"/><g class="blocklyEditableText" transform="translate(8, 0) " style="cursor: text;" fill="#575E75"><text x="12" y="18" dominant-baseline="middle" dy="0" text-anchor="middle"> </text></g></g><path style="visibility: hidden" d="" fill="#389438"/><text y="2" text-anchor="middle" dominant-baseline="middle" dy="0" x="6.022135257720947" transform="translate(52, 20) ">+</text><path style="visibility: hidden" d="" fill="#389438"/></g><pattern id="blocklyDisabledPattern9574749246911267" patternUnits="userSpaceOnUse" width="10" height="10"><rect width="10" height="10" fill="#aaa"/><path d="M 0 0 L 10 10 M 10 0 L 0 10" stroke="#cc0"/></pattern></svg>