<svg xmlns="http://www.w3.org/2000/svg" width="350.07293701171875" height="120" viewBox="0 0 175.03646850585938 60" fill="#fff"><g transform="translate(2, 2)"><path stroke="#CF8B17" fill="#FFAB19" fill-opacity="1" d="m 0,4 A 4,4 0 0,1 4,0 H 12 c 2,0 3,1 4,2 l 4,4 c 1,1 2,2 4,2 h 12 c 2,0 3,-1 4,-2 l 4,-4 c 1,-1 2,-2 4,-2 H 167.03645706176758 a 4,4 0 0,1 4,4 v 40  a 4,4 0 0,1 -4,4 H 48   c -2,0 -3,1 -4,2 l -4,4 c -1,1 -2,2 -4,2 h -12 c -2,0 -3,-1 -4,-2 l -4,-4 c -1,-1 -2,-2 -4,-2 H 4 a 4,4 0 0,1 -4,-4 z"/><g data-argument-type="text number" transform="translate(82.71875,8)"><path stroke="#CF8B17" fill="#FFFFFF" fill-opacity="1" d="m 0,0 m 16,0 H 24 a 16 16 0 0 1 0 32 H 16 a 16 16 0 0 1 0 -32 z"/><g class="blocklyEditableText" transform="translate(8, 0) " style="cursor: text;" fill="#575E75"><text x="12" y="18" dominant-baseline="middle" dy="0" text-anchor="middle">1</text></g></g><text y="2" text-anchor="middle" dominant-baseline="middle" dy="0" x="33.359375" transform="translate(8, 24) ">attendre</text><path style="visibility: hidden" d="" fill="#CF8B17"/><text y="2" text-anchor="middle" dominant-baseline="middle" dy="0" x="16.15885353088379" transform="translate(130.71875, 24) ">secs</text></g><pattern id="blocklyDisabledPattern9574749246911267" patternUnits="userSpaceOnUse" width="10" height="10"><rect width="10" height="10" fill="#aaa"/><path d="M 0 0 L 10 10 M 10 0 L 0 10" stroke="#cc0"/></pattern></svg>