<svg xmlns="http://www.w3.org/2000/svg" width="306.60418701171875" height="88" viewBox="0 0 153.30209350585938 44" fill="#fff"><g transform="translate(2, 2)"><path stroke="#389438" fill="#59C059" fill-opacity="1" d="m 0,0 m 20,0 H 129.3020830154419 l 20 20 l -20 20 H 20 l -20 -20 l 20 -20 z"/><g data-argument-type="text" transform="translate(20,4)"><path stroke="#389438" fill="#FFFFFF" fill-opacity="1" d="m 0,0 m 16,0 H 24 a 16 16 0 0 1 0 32 H 16 a 16 16 0 0 1 0 -32 z"/><g class="blocklyEditableText" transform="translate(8, 0) " style="cursor: text;" fill="#575E75"><text x="12" y="18" dominant-baseline="middle" dy="0" text-anchor="middle"> </text></g></g><g data-argument-type="text" transform="translate(88.0442705154419,4)"><path stroke="#389438" fill="#FFFFFF" fill-opacity="1" d="m 0,0 m 16,0 H 25.2578125 a 16 16 0 0 1 0 32 H 16 a 16 16 0 0 1 0 -32 z"/><g class="blocklyEditableText" transform="translate(8, 0) " style="cursor: text;" fill="#575E75"><text x="12.62890625" y="18" dominant-baseline="middle" dy="0" text-anchor="middle">50</text></g></g><path style="visibility: hidden" d="" fill="#389438"/><text y="2" text-anchor="middle" dominant-baseline="middle" dy="0" x="6.022135257720947" transform="translate(68, 20) ">=</text><path style="visibility: hidden" d="" fill="#389438"/></g><pattern id="blocklyDisabledPattern9574749246911267" patternUnits="userSpaceOnUse" width="10" height="10"><rect width="10" height="10" fill="#aaa"/><path d="M 0 0 L 10 10 M 10 0 L 0 10" stroke="#cc0"/></pattern></svg>