<svg xmlns="http://www.w3.org/2000/svg" width="456.24481201171875" height="88" viewBox="0 0 228.12240600585938 44" fill="#fff"><g transform="translate(2, 2)"><path stroke="#389438" fill="#59C059" fill-opacity="1" d="m 0,0 m 20,0 H 204.1223907470703 a 20 20 0 0 1 0 40 H 20 a 20 20 0 0 1 0 -40 z"/><g data-argument-type="text number" transform="translate(61.744789123535156,4)"><path stroke="#389438" fill="#FFFFFF" fill-opacity="1" d="m 0,0 m 16,0 H 24 a 16 16 0 0 1 0 32 H 16 a 16 16 0 0 1 0 -32 z"/><g class="blocklyEditableText" transform="translate(8, 0) " style="cursor: text;" fill="#575E75"><text x="12" y="18" dominant-baseline="middle" dy="0" text-anchor="middle">1</text></g></g><g data-argument-type="text" transform="translate(137.40624618530273,4)"><path stroke="#389438" fill="#FFFFFF" fill-opacity="1" d="m 0,0 m 16,0 H 66.71614456176758 a 16 16 0 0 1 0 32 H 16 a 16 16 0 0 1 0 -32 z"/><g class="blocklyEditableText" transform="translate(8, 0) " style="cursor: text;" fill="#575E75"><text x="33.35807228088379" y="18" dominant-baseline="middle" dy="0" text-anchor="middle">pomme</text></g></g><text y="2" text-anchor="middle" dominant-baseline="middle" dy="0" x="20.872394561767578" transform="translate(12, 20) ">lettre</text><path style="visibility: hidden" d="" fill="#389438"/><text y="2" text-anchor="middle" dominant-baseline="middle" dy="0" x="9.830728530883789" transform="translate(109.74478912353516, 20) ">de</text><path style="visibility: hidden" d="" fill="#389438"/></g><pattern id="blocklyDisabledPattern9574749246911267" patternUnits="userSpaceOnUse" width="10" height="10"><rect width="10" height="10" fill="#aaa"/><path d="M 0 0 L 10 10 M 10 0 L 0 10" stroke="#cc0"/></pattern></svg>