<svg xmlns="http://www.w3.org/2000/svg" width="304.9375" height="88" viewBox="0 0 152.46875 44" fill="#fff"><g transform="translate(2, 2)"><path stroke="#389438" fill="#59C059" fill-opacity="1" d="m 0,0 m 20,0 H 128.46875 l 20 20 l -20 20 H 20 l -20 -20 l 20 -20 z"/><path style="visibility: visible" d="M 16,0  h 16 l 16,16 l -16,16 h -16 l -16,-16 l 16,-16 z" fill="#389438" transform="translate(8,4)" data-argument-type="boolean"/><text y="2" text-anchor="middle" dominant-baseline="middle" dy="0" x="10.234375" transform="translate(64, 20) ">ou</text><path style="visibility: visible" d="M 16,0  h 16 l 16,16 l -16,16 h -16 l -16,-16 l 16,-16 z" fill="#389438" transform="translate(92.46875,4)" data-argument-type="boolean"/></g><pattern id="blocklyDisabledPattern9574749246911267" patternUnits="userSpaceOnUse" width="10" height="10"><rect width="10" height="10" fill="#aaa"/><path d="M 0 0 L 10 10 M 10 0 L 0 10" stroke="#cc0"/></pattern></svg>