<svg xmlns="http://www.w3.org/2000/svg" width="136" height="104" viewBox="0 0 68 52" fill="#fff"><g transform="translate(2, 2)"><path stroke="#CF8B17" fill="#FFAB19" fill-opacity="1" d="m 0,4 A 4,4 0 0,1 4,0 H 12 c 2,0 3,1 4,2 l 4,4 c 1,1 2,2 4,2 h 12 c 2,0 3,-1 4,-2 l 4,-4 c 1,-1 2,-2 4,-2 H 60 a 4,4 0 0,1 4,4 v 40  a 4,4 0 0,1 -4,4 H 4 a 4,4 0 0,1 -4,-4 z"/><text y="2" text-anchor="middle" dominant-baseline="middle" dy="0" x="23.046875" transform="translate(8, 24) ">pause</text></g><pattern id="blocklyDisabledPattern9574749246911267" patternUnits="userSpaceOnUse" width="10" height="10"><rect width="10" height="10" fill="#aaa"/><path d="M 0 0 L 10 10 M 10 0 L 0 10" stroke="#cc0"/></pattern></svg>