<svg xmlns="http://www.w3.org/2000/svg" width="328" height="344" viewBox="0 0 164 172" fill="#fff"><g transform="translate(2, 2)"><path stroke="#CF8B17" fill="#FFAB19" fill-opacity="1" d="m 0,4 A 4,4 0 0,1 4,0 H 12 c 2,0 3,1 4,2 l 4,4 c 1,1 2,2 4,2 h 12 c 2,0 3,-1 4,-2 l 4,-4 c 1,-1 2,-2 4,-2 H 156 a 4,4 0 0,1 4,4 v 40  a 4,4 0 0,1 -4,4 H 64 c -2,0 -3,1 -4,2 l -4,4 c -1,1 -2,2 -4,2 h -12 c -2,0 -3,-1 -4,-2 l -4,-4 c -1,-1 -2,-2 -4,-2 h -8  a 4,4 0 0,0 -4,4 v 16 a 4,4 0 0,0 4,4 h  8 c 2,0 3,1 4,2 l 4,4 c 1,1 2,2 4,2 h 12 c 2,0 3,-1 4,-2 l 4,-4 c 1,-1 2,-2 4,-2 H 156 H 156 a 4,4 0 0,1 4,4 v 24  a 4,4 0 0,1 -4,4 H 64 c -2,0 -3,1 -4,2 l -4,4 c -1,1 -2,2 -4,2 h -12 c -2,0 -3,-1 -4,-2 l -4,-4 c -1,-1 -2,-2 -4,-2 h -8  a 4,4 0 0,0 -4,4 v 16 a 4,4 0 0,0 4,4 h  8 c 2,0 3,1 4,2 l 4,4 c 1,1 2,2 4,2 h 12 c 2,0 3,-1 4,-2 l 4,-4 c 1,-1 2,-2 4,-2 H 156 a 4,4 0 0,1 4,4 v 24  a 4,4 0 0,1 -4,4 H 48   c -2,0 -3,1 -4,2 l -4,4 c -1,1 -2,2 -4,2 h -12 c -2,0 -3,-1 -4,-2 l -4,-4 c -1,-1 -2,-2 -4,-2 H 4 a 4,4 0 0,1 -4,-4 z"/><text y="2" text-anchor="middle" dominant-baseline="middle" dy="0" x="6.002604007720947" transform="translate(8, 24) ">si</text><path style="visibility: visible" d="M 16,0  h 16 l 16,16 l -16,16 h -16 l -16,-16 l 16,-16 z" fill="#CF8B17" transform="translate(48,8)" data-argument-type="boolean"/><text y="2" text-anchor="middle" dominant-baseline="middle" dy="0" x="18.96484375" transform="translate(104, 24) ">alors</text><text y="2" text-anchor="middle" dominant-baseline="middle" dy="0" x="21.29557228088379" transform="translate(8, 88) ">sinon</text></g><pattern id="blocklyDisabledPattern9574749246911267" patternUnits="userSpaceOnUse" width="10" height="10"><rect width="10" height="10" fill="#aaa"/><path d="M 0 0 L 10 10 M 10 0 L 0 10" stroke="#cc0"/></pattern></svg>